<svg xmlns="http://www.w3.org/2000/svg" viewBox="0 0 2833.74 1659.04"><defs><style>.cls-1{isolation:isolate;}.cls-2{fill:#acb3bd;}.cls-16,.cls-3{fill:#c4e9f6;}.cls-4{fill:#8d633a;}.cls-14,.cls-5{fill:#2aaae2;}.cls-19,.cls-6{fill:#fff;}.cls-6{opacity:0.35;}.cls-16,.cls-17,.cls-6{mix-blend-mode:soft-light;}.cls-7{fill:#544842;}.cls-13,.cls-17,.cls-8,.cls-9{fill:#c8b299;}.cls-9{opacity:0.25;}.cls-11,.cls-13,.cls-14,.cls-9{mix-blend-mode:multiply;}.cls-10,.cls-11{fill:#998776;}.cls-11{opacity:0.27;}.cls-12{fill:#736458;}.cls-13{opacity:0.46;}.cls-14{opacity:0.34;}.cls-15{fill:#8fd8f8;}.cls-18{fill:#7fc347;}.cls-20{font-size:342px;fill:#184352;}.cls-20,.cls-22{font-family:AvenirNextLTPro-Regular, Avenir Next LT Pro;}.cls-21{letter-spacing:-0.02em;}.cls-22{font-size:209px;fill:#407e3c;}.cls-23{letter-spacing:-0.02em;}.cls-24{letter-spacing:-0.02em;}.cls-25{letter-spacing:-0.02em;}</style></defs><title>Logo Paradise travel</title><g class="cls-1"><g id="Layer_1" data-name="Layer 1"><path class="cls-2" d="M1592,1372.14s18.65-47.79,57.51-49.11,68.38-13.28,76.15-19.91,69.94-22.57,87-18.59,32.64,43.81,90.14,38.5c17.88-1.65,34-3.56,47.63-5.41,36.47-4.92,59,34.09,31.3,54.91a41.64,41.64,0,0,1-18.31,7.57C1916.82,1388.07,1592,1372.14,1592,1372.14Z" transform="translate(-361.37 -1254.8)"/><path class="cls-3" d="M1956.43,1936.89h-2c-24.15-.29-61.34-5.33-99.47-13.48-27.93-6-58.77-14.33-60.5-18.57a1,1,0,0,1,.23-1.11c6-6,107.83-77.1,112.16-80.12.46-.06,32.51-1.22,67.14.82,46.53,2.74,75.28,9.65,85.44,20.52a13.48,13.48,0,0,1,4,10.93c-2.55,24.29-38.17,35.55-57.31,41.6-6.29,2-11.73,3.71-11.65,4.7,0,.28.66.86,4.68,1.48,8.44,1.3,13.4,5.5,12.95,11s-6,11-14.93,15.07C1989.88,1933,1977,1936.89,1956.43,1936.89Zm-49.36-112.84c-3,2.13-106.17,74.16-112,80a.48.48,0,0,0-.12.57c2.78,6.82,103.54,31.06,159.52,31.74h2c36.8,0,54.42-12.64,55.18-21.81.43-5.26-4.25-9.16-12.53-10.44-3.56-.55-5-1.11-5.1-1.94-.1-1.33,3.6-2.56,12-5.21,19-6,54.44-17.21,57-41.18a13,13,0,0,0-3.86-10.52C2035.25,1819.81,1910.74,1823.93,1907.07,1824.05Z" transform="translate(-361.37 -1254.8)"/><path class="cls-4" d="M1907,1823.8s160.19-6,156.18,32-90.1,44.05-64.07,48.06,12.78,33.42-44.67,32.73-165.57-26.73-159.57-32.73S1907,1823.8,1907,1823.8Z" transform="translate(-361.37 -1254.8)"/><path class="cls-5" d="M1496.51,1731.7c-4,4-150.17,34-122.14,58.06s96.11,6,70.08,30-84.1,16,32,42-56.07,44.05,54.06,54.06,70.08,50.06,278.32,44,152.18-54.06,90.11-64.07-70.09-28,0-34,70.08-16,14-32S1496.51,1731.7,1496.51,1731.7Z" transform="translate(-361.37 -1254.8)"/><path class="cls-6" d="M1902.73,1936.64c-38.91-8-101.29-34.45-69-37.47s17.19-14.78-10.81-19.12-27.91-23.44,15.94-23.35,91.16-4,67.5-6.87-66.76-12.81-24.77-10.87,51.39,2.86,41.38-3.14-418-68.33-501.19-65.31c0,0-50.48,2.65-25.73,4.12s103.93,10.47,72.42,15.66-61.56,5.53-20,8,88.26-2.32,54.67,7.27-13.38,11.34,10.19,12.36,122.72-.56,61.42,5.53-86.67,19-63.39,22.67,54.47,7.19,22.61,16.49c-11.28,3.29-21.53,5.65-28.67,7.61,10,4.09,13.56,8,13.46,11.59,34.72,7.56,95.45,23.81,79.45,11.29-17.41-13.62-47.68-28.44-4.54-30.49s89.3-2.56,56.75-9.87-27.92-11.9-3-11.88,98.22-6.08,64.61,0-55.56,8.17-5.61,15.83,93.84,12.3,46.54,16.73-82.68,17.41-55.15,20.44,92.61,5.62,55.15,14.92-126.76,4.75-69.25,21.4S1941.64,1944.6,1902.73,1936.64Z" transform="translate(-361.37 -1254.8)"/><path class="cls-7" d="M1777,1836.71c0-7.47,31.35-20.91,38.82-16.43s35.84,9,16.43,16.43S1777,1836.71,1777,1836.71Z" transform="translate(-361.37 -1254.8)"/><path class="cls-8" d="M1578.5,1343c-15.78,22.1-182.16,416.74-172.18,428.38s184.66,15,211.28,15,48.24-440,28.28-443.36S1586.82,1331.39,1578.5,1343Z" transform="translate(-361.37 -1254.8)"/><path class="cls-9" d="M1553.64,1583.36l-25.21,54.53-20.76,24.87s-18.88-41.07-13.86-62.08c3.27-13.67,11.12-68.41,16.2-105-50.79,120.35-109.75,268.63-103.69,275.7,4.94,5.77,50.21,9.49,97.92,11.78Z" transform="translate(-361.37 -1254.8)"/><path class="cls-10" d="M1497,1808.84s93.16-416.73,151.38-427.55,117.29,24.13,117.29,24.13l-78.19,379.3Z" transform="translate(-361.37 -1254.8)"/><path class="cls-11" d="M1596.67,1779.49l5.3-44.34,42.23-248.76-21.77-23.33-10.62,34.71s-3,29.06-8.33,41.1-14.16,16-14.16,16l14.16,4.32-49.84,223.2s-22.05,16.9-36.93,12.11c-6.68-2.15-9.85-11.8-11.31-21.78-5.36,22.46-8.41,36.14-8.41,36.14l102.25-12.94C1598.43,1788.45,1596.67,1779.49,1596.67,1779.49Z" transform="translate(-361.37 -1254.8)"/><path class="cls-12" d="M1606.78,1481.94s6.66-110.63,24.13-112.29,134.75,0,134.75,0l156.38-.83,22.46,56.56-20.8,410.08-334.38-28.28s18.3-240.39,28.28-245.38,21.62-58.23,15.8-57.4S1606.78,1481.94,1606.78,1481.94Z" transform="translate(-361.37 -1254.8)"/><path class="cls-5" d="M1644.5,1802c13.82,2.07,18.79,3.14,30.48,4.64,11.29,1.46,22,3.09,32.57,4.61,1.66-73.83,6.9-299.82,10.7-393.19,1-23.58,4.59-48,3.93-49.26-1.2-2.22-6.18-.36-15.16-.75-15.73-.67-70.28,337.46-85.2,431.92A170.55,170.55,0,0,1,1644.5,1802Z" transform="translate(-361.37 -1254.8)"/><path class="cls-5" d="M1750.6,1816c12.22.69,24.45,1.08,36.69,1.3,6.83-70.24,13.72-327.24,1.56-424-.73-5.76-1.84-18.78-4-22-4-6-12.11-5.67-12.49,3.09-1.78,40.75-31.26,357.14-35.43,440.57C1741.46,1815.38,1746,1815.77,1750.6,1816Z" transform="translate(-361.37 -1254.8)"/><path class="cls-5" d="M1823.14,1817.52c20-.09,39.2,1.62,57.89,7.07-3.23-79.8-17-426.59-11.81-442,3.32-10,13.7-12.89,22-13.57,2-.16,2.3-1.07.33-1.62-11.22-3.1-34.61-2.08-43.12,1.88-21.56,10-31.53,353.49-40.5,448.29C1813,1817.53,1818.07,1817.54,1823.14,1817.52Z" transform="translate(-361.37 -1254.8)"/><path class="cls-8" d="M1906.39,1383s20.62-15.69,22.62-21.7,12-28,20-24,58.07-2,60.07,8,0,32,6,50.06,22,444.51,8,444.51-72.08-2-100.12-4-4-114.14-10-126.15-16-118.14-6-136.16,24-60.07,14-68.08S1899.8,1386.66,1906.39,1383Z" transform="translate(-361.37 -1254.8)"/><path class="cls-13" d="M1998.26,1595.06l-33.73-3.18,35.71-99.86-31.37-41.47,7.14-49,34-47.22-87.94,63.33L1935.61,1549l-29.22,38,10.4,106.36L1913,1709.6c3,5.91-1.22,35.4-3.07,64.4l5.47,57.18a10.07,10.07,0,0,0,7.64,4.64c28,2,86.1,4,100.12,4,10.15,0,4.55-223.6-1.59-353.84l-9.88-3.52Z" transform="translate(-361.37 -1254.8)"/><path class="cls-4" d="M1544,1849.83c3.16,0,6.47,0,9.8,0h30.61c-4.53-3.25-24.79-17.49-41.4-24.41-18.81-7.84-48.6-3.13-51.74,17.25l-12.89,7.16Z" transform="translate(-361.37 -1254.8)"/><path class="cls-4" d="M1712,1877.87c-6-5.15-16.48-12.62-29.91-15.7-18.08-4.15-32.53,10.93-36.57,15.7Z" transform="translate(-361.37 -1254.8)"/><path class="cls-14" d="M1868.76,1803.05c-3.37,0-6.08-200.36-6.08-200.36s-5.67,199.61-12.28,200.62-8.53-156-8.53-156-4.54,155.71-14.83,155.71,0-187.18,0-187.18l-18,201.65c4.69,0,9.39,0,14.08,0a239.48,239.48,0,0,1,34.54,2.13l18.68-1.44,0-112.73S1872.14,1803.05,1868.76,1803.05Zm-98.32-151.6c.19-2.63.29-4.11.29-4.11S1770.62,1648.82,1770.44,1651.45Zm-76.14,123.33c-7.57,2.75,0-167.14,0-167.14s-16.65,171.95-22.26,167,.57-106.47.57-106.47-19.94,109.11-27.07,106.42,14.72-158.76,14.72-158.76l-37.83,180.21,82,7.23,1.17-106.61S1701.87,1772,1694.3,1774.78Zm76.43,12.92c-9.52,1.16-1.93-113-.29-136.25-1.7,23.12-10.36,136.36-17.49,135.44-8-1,7.11-182.66,7.11-182.66l-21.55,203.85h42.9l10-199.13S1781.33,1786.41,1770.73,1787.7Z" transform="translate(-361.37 -1254.8)"/><path class="cls-15" d="M1704.45,1803.31a14.28,14.28,0,0,0-.69-1.69c-3.88-7.95-14.88-10.39-21.75-4.85-.27.22-.51.45-.76.68a16.08,16.08,0,0,0-10-7.77,18.49,18.49,0,0,0-17.23,4.59,21.9,21.9,0,0,0-7-6c-8.78-4.74-20.19-8.52-29.67-3.63-8.56,4.41-12.88,14.71-7.91,23.51,3.69,6.54,9.83,9.44,16.53,9.91.26.12.52.19.78.3,7.7,13.85,29.36,12.7,41.39,3.35a17.92,17.92,0,0,0,6.5,4.71,19.77,19.77,0,0,0,16.81-1.52,21.23,21.23,0,0,0,11.25-1.2,7.06,7.06,0,0,0,6.38-2.5l1.55-1.86C1716.1,1812.81,1712.35,1804.64,1704.45,1803.31Z" transform="translate(-361.37 -1254.8)"/><path class="cls-15" d="M1894.59,1833.83q-2.34-2.88-4.74-5.72a7.81,7.81,0,0,0-4.28-2.49c-.92-4.17-4.21-7.75-9.21-7.41a30.33,30.33,0,0,0-10,2.37c-1.16-1.1-2.54-2.3-2.91-2.59a36.6,36.6,0,0,0-7.07-4.39,37.69,37.69,0,0,0-17.28-3.76,35.18,35.18,0,0,0-16.28,4.6c-5.42-7.87-15.59-11.49-26.8-7.89a24.38,24.38,0,0,0-6.4,3.18,20.38,20.38,0,0,0-6.35-6.57c-7.73-4.82-18.33-2.32-25.44,3.34-6.56-6.41-16.67-9.78-25.1-6.28-10.63,4.41-16.22,17.5-10.54,27.89,4.21,7.71,15.7,13.16,23.85,9.05a14,14,0,0,0,10.88-1.92,33.55,33.55,0,0,0,7,5.87c4.55,2.82,10.35,4.12,15.43,2.23a14.9,14.9,0,0,0,1.3,1.05,16.19,16.19,0,0,0,2,1.14c7.68,9.52,23.3,12.65,35,10.54a62,62,0,0,0,13.58-4.54c6.44-2.77,12.15-1.46,19-1a275.48,275.48,0,0,0,37.57-.27C1896.5,1849.62,1900,1840.37,1894.59,1833.83Z" transform="translate(-361.37 -1254.8)"/><path class="cls-3" d="M1640.1,1792.08c-2.58-4.34-8.8-6.12-13.66-4.71-6,1.72-10.37,8-8,14.17l.07.16a10.27,10.27,0,0,0,8,7.7c5.05,1,14.36-.48,16.87-5.69C1645.35,1799.8,1643.38,1795.31,1640.1,1792.08Z" transform="translate(-361.37 -1254.8)"/><path class="cls-3" d="M1694,1803.11a8.92,8.92,0,0,0-7.31-3.76,8.47,8.47,0,0,0-2.43.41c-3.12-4.56-11.31-4.24-18.68-2.48-4.94-1-11.25.16-14.93,3.13-4.4,3.54-4.48,9.65.51,12.76,5.42,3.39,15.45,2.33,21.54,2a19.65,19.65,0,0,0,7.51-1.87,7.18,7.18,0,0,0,.38.79,6.62,6.62,0,0,0,5.33,3.19,8.2,8.2,0,0,0,5.65.35c3.33-1,6.12-3.78,6.2-7.39A8.31,8.31,0,0,0,1694,1803.11Z" transform="translate(-361.37 -1254.8)"/><path class="cls-3" d="M1761.79,1805.7a21,21,0,0,0-14.73,5,13,13,0,0,0-4.1-4.63,3.16,3.16,0,0,0-1.64-2.33c-2.55-1.3-5.22-.63-7.47,1a9.65,9.65,0,0,0-3.27,1.85,11.85,11.85,0,0,0-.34,20.51,12.38,12.38,0,0,0,17.12-5.06c4.84,4,13.91,6,20.15,3.18,5.72-.37,11.08-2.79,13.08-7.41C1784.78,1808.08,1772,1803.79,1761.79,1805.7Zm-22.63,10.15s-.06.07-.06.08a.5.5,0,0,1,0-.12c-1.08-.53-1.64-.3-1.45-1.66a2.44,2.44,0,0,1,1.44,1.46C1739.18,1815.41,1739.77,1816.09,1739.16,1815.85Zm21.95-.91a9.51,9.51,0,0,1,3.56.84,8.1,8.1,0,0,1-1,.24c-2.84.62-5,0-2.56-1.08Z" transform="translate(-361.37 -1254.8)"/><path class="cls-3" d="M1739.08,1815.81c.06-.06,0-.12,0-.2A.35.35,0,0,0,1739.08,1815.81Z" transform="translate(-361.37 -1254.8)"/><path class="cls-3" d="M1859.51,1820.67a48.2,48.2,0,0,0-13.19-1.87c-2.91,0-5.72,0-8.06,1.15-3.84-2.3-10.23-1.39-14.13-1.53-3-.11-6.68-.68-10.16-.5-1.51-4.85-8.12-7.26-13.15-5.6a8,8,0,0,0-2.62.76,8.88,8.88,0,0,0-3.65,3.24,5.44,5.44,0,0,0-2.44,3.47,6.6,6.6,0,0,0,1.81,8.18,9.21,9.21,0,0,0,8.64,1.67,13.9,13.9,0,0,0,2,0,10.11,10.11,0,0,0,.77,1.59c3.71,6.13,9.35,5.55,15,3.14,5.42,2.62,11.4,3.28,16.81-1a12.23,12.23,0,0,0,3.45-4.36,3.35,3.35,0,0,0,1.15.48c5.21,1.2,11.29.21,16.6-.08C1863.2,1829.1,1864.49,1822.05,1859.51,1820.67Z" transform="translate(-361.37 -1254.8)"/><path class="cls-16" d="M1848.42,1369.23s-10.66,28.27-14.66,96-6.72,119.9-6.72,119.9,9.74-127.82,15.69-129.36,5.69,92.07,5.69,92.07,10.09-174.82,14.25-177l4.17-2.16Z" transform="translate(-361.37 -1254.8)"/><path class="cls-16" d="M1777,1374.37c7.87-3.09,14.43,210.3,14.43,210.3s-13.49-147.27-14.43-150.23-6.24,96.14-6.24,96.14S1769.09,1377.46,1777,1374.37Z" transform="translate(-361.37 -1254.8)"/><path class="cls-16" d="M1672,1544.85s29.28-164.77,36.36-170.48,11.51,0,11.51,0l-14.29,174.42s10.5-142.62,6.4-144.71-33.24,209.2-33.24,209.2l22.33-197.56Z" transform="translate(-361.37 -1254.8)"/><path class="cls-17" d="M1584.41,1345.45c8.4-5.43,53.89,2,56.91,3.54s-25.88,11.29-28.45,16.24-69,228.71-85.36,233.75S1571.42,1353.84,1584.41,1345.45Z" transform="translate(-361.37 -1254.8)"/><path class="cls-17" d="M1729.87,1375.47l19.67.76-10.48,84.07,10.48-.72-6.81,97.63-8.4.21,9.92,6.82-14.38,87.21s-9.92-97-7.61-103.65,11.39-6.07,6.85-6.33-4.62-77-4.62-77Z" transform="translate(-361.37 -1254.8)"/><path class="cls-17" d="M1801,1377.29c2.27-1.06,26,0,26,0v19.93l-13,6.83,13,2.48-19.12,119.8Z" transform="translate(-361.37 -1254.8)"/><path class="cls-17" d="M1876.4,1383c3.31-3,28.16-12.41,26.33-8.44s-9.84,10.77-9.84,10.77l-8.64,116.22Z" transform="translate(-361.37 -1254.8)"/><path class="cls-17" d="M1683,1377.29c-.76-3.49-46.92-4.84-52,3.15,0,0-2.45,14.71,5.87,15.6,2.14.23,6.29-.67,11.24-2.19l-.61,21.84s21.91,34.7,24.63,30.34c2.6-4.19,10.22-63.39,10.86-68.37A.72.72,0,0,0,1683,1377.29Z" transform="translate(-361.37 -1254.8)"/><path class="cls-17" d="M1912.79,1390.51s23.87-17.36,26-25.28,8.1-21.73,8.1-21.73l47.21,2s-32,16-35.66,21.56-28,34-31.81,33.71S1912.79,1390.51,1912.79,1390.51Z" transform="translate(-361.37 -1254.8)"/><path class="cls-18" d="M1513.15,1596a7,7,0,0,1-2.58-10.24c1.54-1.94,4-2.85,6.1-4.16s4.08-3.53,3.61-6c-.35-1.78-2-3.24-1.84-5,.13-2.08,2.63-3.33,4.68-2.95s3.69,1.87,5.21,3.3c-.32,7.08-9.29,13.35-5.94,19.6.57,1,1.46,2,1.71,3.12.46,2.22-1.62,4.18-3.72,5s-4.49,1.22-6.18,2.74Z" transform="translate(-361.37 -1254.8)"/><path class="cls-18" d="M1488.22,1521c.57,4.7,5.35,7.82,10,8.76a13.81,13.81,0,0,0,8.89-.83c2.71-1.37,4.76-4.27,4.51-7.29s-2.54-5.49-2.7-8.47c-.17-3.35,2.35-6.16,3.74-9.21a11,11,0,0,0-.2-10.1c-1.83-3-5.92-4.61-9.08-3.1-1,5.91-3.56,13.32-9.54,13.42-1.21,0-2.62-.23-3.47.63a3.48,3.48,0,0,0-.67,2.44l-.27,13.73Z" transform="translate(-361.37 -1254.8)"/><path class="cls-18" d="M1429.32,1532.46a19.21,19.21,0,0,0-17.47-4.15c-1.71.46-3.65,1.13-5.13.17a4.88,4.88,0,0,1-1.71-2.68c-1-2.89-1.15-6.39.89-8.64s6.79-1.52,7,1.5q1.3-3.35,2.59-6.69l11.93,9.24c4.24,3.28,9,8.6,6.28,13.25a3.19,3.19,0,0,1-4.14-2.2Z" transform="translate(-361.37 -1254.8)"/><path class="cls-18" d="M1417,1507.84c-3-1.47-4.65-5-4.76-8.39s1-6.66,2.07-9.85c.69-2,1.8-4.37,3.92-4.53,2.64-.19,4,3.34,3.36,5.9s-2.36,4.84-2.54,7.48,2.63,5.63,4.82,4.16c2.23,2,4.52,4,5.75,6.7s1.1,6.26-1.11,8.25c-2.84,2.55-7.71,1.14-10-1.93s-2.6-7.13-2.58-11Z" transform="translate(-361.37 -1254.8)"/><path class="cls-7" d="M1423.21,1517.58s42,34,46,88.1c.21,2.84.31,5.55.3,8.15-.13,47-33.5,57.82-18.32,92,16,36,42,58.07,46,78.09s-4,28,16,34,30,4,30,4l-8.38,36.66s-38.28-8.65-49-19.65,9.31-31-2.7-55-18-40.05-32-64.07-18-42,0-78.1S1465.26,1573.65,1423.21,1517.58Z" transform="translate(-361.37 -1254.8)"/><path class="cls-7" d="M1505.3,1499.56s-28,78.09-12,118.14,42,36,12,58.06-52.06,20-36,32,7.28,40,7.28,40l2.73,6.1s0-6,4-16,0-16-8-28-14-6,12-18,44-26,34-40-30-24-30-58.07S1505.3,1499.56,1505.3,1499.56Z" transform="translate(-361.37 -1254.8)"/><path class="cls-7" d="M1417.2,1621.7s-10,28,38,30,49-13.83,49-13.83l3.41,4.58s-20.35,11.25-32.36,13.25-42-2-50.06-8S1411.2,1629.71,1417.2,1621.7Z" transform="translate(-361.37 -1254.8)"/><path class="cls-7" d="M1492.14,1577s-24.88-19.34-22.88-31.36-6-34-6-34,10,18,10,28-8,10,4,18,14,12,14,12Z" transform="translate(-361.37 -1254.8)"/><path class="cls-7" d="M1497.4,1626.71s17.92-13,17.92-19-2-18,0-22,8-6,8-6-6,4-6,10,2,18-2,24-16.29,16-16.29,16Z" transform="translate(-361.37 -1254.8)"/><path class="cls-7" d="M1443.23,1821.93s-30-28-20-46,24,0,40,0,28.88.94,28.88.94l-.85,11.07s-28,2-40-4-16-26-22-8S1443.23,1821.93,1443.23,1821.93Z" transform="translate(-361.37 -1254.8)"/><path class="cls-18" d="M1406.63,1642.54A21.32,21.32,0,0,0,1418,1651c2.21.68,4.69,1,6.77-.06a10.25,10.25,0,0,0,3.43-3.19c2.68-3.52,4.86-7.86,4.15-12.23s-5.4-8.2-9.53-6.59c-.06-3.67-.13-7.35-.19-11a4.39,4.39,0,0,0-.65-2.7,3.74,3.74,0,0,0-2.28-1.13,14.16,14.16,0,0,0-14.54,6.43l-7,.84a89.71,89.71,0,0,0,11.67,21.33Z" transform="translate(-361.37 -1254.8)"/><path class="cls-18" d="M1488.43,1698.15c-2.34-2-5.68-2.38-8.45-3.76s-5.07-5.05-3.12-7.46a6.73,6.73,0,0,1,3.76-1.86c3.25-.81,7.37-1.34,9.35,1.37.71,1,1.14,2.33,2.29,2.64,1.45.38,2.56-1.18,3.7-2.16,2.81-2.45,7.06-1.53,10.75-1s8.46-.11,9.54-3.68l8.43,11.49c2.28,3.1,4.64,6.44,4.81,10.28.32,6.82-7.24,12.25-14,11.19s-12-7.06-13.82-13.64c-5.16-.46-7.93,6.7-13,7.78-4.51,1-8.79-4.78-6.59-8.83Z" transform="translate(-361.37 -1254.8)"/><path class="cls-18" d="M1540.19,1645.44c.75-2.12-1.11-4.45-3.27-5.06-7.29-2.05-14.71,5.12-21.78,4.82-10.22-.43-4.61-4.24-9.86-7-8.28-4.3-12.67-.84-14.07,9.15s.34,9.25,6,9.69c4.06.32,15.72-2.36,21.23-2.86S1538,1651.59,1540.19,1645.44Z" transform="translate(-361.37 -1254.8)"/><path class="cls-18" d="M1421,1571.18c-.89-.87-1.59-1.93-2.56-2.71a11.69,11.69,0,0,0-4.55-1.86l-15.16-3.84c-2.28-2.94.77-7.57,4.46-8s7.16,1.75,10,4.12,5.68,5.11,9.3,6c8.59,2.06,16.69-7.21,25.39-5.69,3.78.66,7.37,3.35,11.11,2.47,1.66-.39,3.1-1.46,4.77-1.75,2.09-.38,4.17.49,6.11,1.33,6.86,3,24,13.65,13.23,20.7-6,3.93-14.52-1.65-19.25-4.6-5.89-3.68-9.4-8.85-16.85-9.86C1438.05,1566.21,1428.14,1578.24,1421,1571.18Z" transform="translate(-361.37 -1254.8)"/><path class="cls-18" d="M1460.91,1512.69c-.71-1.55-2.31-2.44-3.63-3.51-2.93-2.36-4.74-6.33-3.84-10s5-6.45,8.56-5.34c4.13,1.27,5.63,6.36,5.72,10.68s-.31,8.67,1.92,12.6c1.52,2.69,7.17,4.29,8,7,1.85,5.91,2.25,7.2-5.08,9.43-4.43,1.35-12.89-.6-15.12-5.22C1454.5,1522.21,1463.44,1518.24,1460.91,1512.69Z" transform="translate(-361.37 -1254.8)"/><path class="cls-19" d="M1554.83,1801.75c-5.34,0-5.35,8.29,0,8.29S1560.17,1801.75,1554.83,1801.75Z" transform="translate(-361.37 -1254.8)"/><path class="cls-19" d="M1511.69,1856.36c-9.56,0-9.58,14.86,0,14.86S1521.27,1856.36,1511.69,1856.36Z" transform="translate(-361.37 -1254.8)"/><path class="cls-18" d="M1422.28,1822.3c2.47,4.66,3.74,10.33,8,13.47,3.51,2.61,9.25,4,9.24,8.41,5.42-7.48,4.29-18.94-2.48-25.22-2.19-2-5.14-4.16-4.78-7.12.32-2.71,3-5.52,3.72-8.26-10.16-2.8-24.85-1.09-26,12.21C1415.22,1814.74,1419.78,1817.58,1422.28,1822.3Z" transform="translate(-361.37 -1254.8)"/><path class="cls-18" d="M1944.38,1449.51c8.45-2.82,11.55-12.38,5.83-18-3.48-3.4-9-5-13.78-7.29s-9.22-6.21-8.15-10.48c.78-3.11,4.4-5.68,4.14-8.84-.29-3.65-5.94-5.85-10.57-5.17s-8.34,3.28-11.78,5.78c.72,12.44,21,23.44,13.43,34.41-1.28,1.84-3.3,3.43-3.85,5.48-1.05,3.9,3.65,7.33,8.39,8.86s10.15,2.15,14,4.8Z" transform="translate(-361.37 -1254.8)"/><path class="cls-18" d="M2000.74,1317.82c-1.3,8.26-12.11,13.73-22.61,15.37-6.72,1-14,1-20.09-1.44s-10.76-7.49-10.2-12.8,5.75-9.64,6.1-14.87c.4-5.89-5.31-10.8-8.46-16.17-3.28-5.6-3.68-12.48.47-17.72s13.37-8.09,20.52-5.44c2.18,10.38,8,23.38,21.57,23.55,2.73,0,5.91-.41,7.82,1.1,1.38,1.09,1.5,2.76,1.53,4.28q.31,12.06.62,24.11Z" transform="translate(-361.37 -1254.8)"/><path class="cls-18" d="M2133.86,1338c10.52-7.28,25.88-10.11,39.49-7.27,3.86.81,8.23,2,11.58.29a8.61,8.61,0,0,0,3.86-4.7c2.15-5.06,2.61-11.22-2-15.17s-15.33-2.67-15.91,2.65q-2.92-5.88-5.86-11.75l-27,16.22c-9.58,5.76-20.23,15.09-14.19,23.25,3.73,1.18,8.52-.8,9.36-3.85Z" transform="translate(-361.37 -1254.8)"/><path class="cls-18" d="M2161.76,1294.77a16.45,16.45,0,0,0,10.75-14.71c.27-5.93-2.23-11.69-4.69-17.31-1.55-3.52-4.07-7.66-8.85-7.93-6-.34-9,5.85-7.6,10.35s5.34,8.5,5.75,13.13-5.95,9.89-10.9,7.29c-5,3.44-10.22,7-13,11.77s-2.48,11,2.51,14.47c6.43,4.48,17.45,2,22.59-3.37s5.87-12.53,5.84-19.24Z" transform="translate(-361.37 -1254.8)"/><path class="cls-7" d="M2070.27,1330.75s-74,52-81.1,134.59c-.37,4.32-.53,8.47-.52,12.44.23,71.85,59,88.32,32.26,140.49-28.21,55-74.05,88.7-81.1,119.29s7,42.82-28.21,52-52.89,6.12-52.89,6.12l14.75,56s67.41-13.22,86.27-30-16.4-47.39,4.76-84.09,31.73-61.18,56.42-97.88,31.73-64.23,0-119.29S1996.22,1416.4,2070.27,1330.75Z" transform="translate(-361.37 -1254.8)"/><path class="cls-7" d="M1962.12,1280.25s63.36,137.06,27.15,207.35-95,63.26-27.15,101.92,117.66,35.14,81.46,56.23-16.46,70.11-16.46,70.11l-6.17,10.72s0-10.54-9-28.12,0-28.11,18.1-49.2,31.68-10.54-27.15-31.63-99.56-45.69-76.93-70.29,67.88-42.17,67.88-101.92S1962.12,1280.25,1962.12,1280.25Z" transform="translate(-361.37 -1254.8)"/><path class="cls-7" d="M2161.24,1494.63s22.63,49.2-86,52.71-110.68-24.26-110.68-24.26l-7.72,8s46,19.75,73.14,23.26,95-3.51,113.14-14.06S2174.82,1508.68,2161.24,1494.63Z" transform="translate(-361.37 -1254.8)"/><path class="cls-7" d="M1991.88,1416.11s56.23-33.95,51.7-55,13.58-59.75,13.58-59.75-22.63,31.63-22.63,49.2,18.1,17.58-9,31.63-31.68,21.09-31.68,21.09Z" transform="translate(-361.37 -1254.8)"/><path class="cls-7" d="M1980,1503.41s-40.49-22.84-40.49-33.38,4.53-31.63,0-38.66-18.1-10.55-18.1-10.55,13.58,7,13.58,17.58-4.53,31.63,4.52,42.17,36.8,28.11,36.8,28.11Z" transform="translate(-361.37 -1254.8)"/><path class="cls-7" d="M2102.41,1846.07s67.89-49.2,45.26-80.83-54.31,0-90.51,0-65.28,1.66-65.28,1.66l1.92,19.42s63.36,3.52,90.51-7,36.2-45.69,49.78-14.06S2102.41,1846.07,2102.41,1846.07Z" transform="translate(-361.37 -1254.8)"/><path class="cls-18" d="M2185.15,1531.2c-6.08,7.06-15.35,12.41-25.8,14.89-5,1.18-10.61,1.69-15.29-.11a22,22,0,0,1-7.77-5.6c-6.06-6.18-11-13.79-9.38-21.47s12.22-14.39,21.54-11.56q.23-9.67.44-19.35c0-1.66.13-3.46,1.47-4.75s3.23-1.69,5.15-2c12.52-1.94,26.3,2.79,32.86,11.29l15.89,1.48a151.41,151.41,0,0,1-26.38,37.44Z" transform="translate(-361.37 -1254.8)"/><path class="cls-18" d="M2000.27,1628.81c5.27-3.58,12.82-4.18,19.09-6.6s11.45-8.86,7.05-13.09c-2-1.95-5.37-2.66-8.5-3.27-7.36-1.43-16.67-2.35-21.14,2.4-1.59,1.69-2.56,4.09-5.16,4.63-3.28.68-5.8-2.06-8.36-3.79-6.36-4.29-16-2.68-24.31-1.73s-19.12-.2-21.56-6.46l-19.06,20.16c-5.13,5.44-10.48,11.31-10.87,18-.71,12,16.36,21.51,31.63,19.65s27-12.39,31.22-23.93c11.68-.81,17.93,11.76,29.4,13.64,10.18,1.68,19.86-8.39,14.89-15.49Z" transform="translate(-361.37 -1254.8)"/><path class="cls-18" d="M1883.28,1536.29c-1.69-3.73,2.49-7.8,7.39-8.87,16.46-3.6,33.23,9,49.22,8.45,23.09-.75,10.42-7.44,22.28-12.23,18.72-7.55,28.63-1.48,31.8,16.06,3.12,17.28-.75,16.23-13.62,17-9.18.56-35.54-4.14-48-5C1920.18,1550.83,1888.18,1547.08,1883.28,1536.29Z" transform="translate(-361.37 -1254.8)"/><path class="cls-18" d="M2152.71,1406c2-1.53,3.59-3.39,5.79-4.75,2.92-1.81,6.66-2.56,10.29-3.28l34.26-6.73c5.15-5.15-1.76-13.29-10.1-14.13s-16.18,3.06-22.65,7.24-12.83,9-21,10.49c-19.41,3.61-37.71-12.66-57.37-10-8.57,1.17-16.67,5.9-25.13,4.35-3.74-.69-7-2.56-10.78-3.08-4.71-.66-9.42.86-13.81,2.35-15.49,5.24-54.25,23.95-29.9,36.31,13.6,6.91,32.83-2.88,43.51-8.06,13.31-6.46,21.25-15.53,38.09-17.3C2114.13,1397.23,2136.52,1418.34,2152.71,1406Z" transform="translate(-361.37 -1254.8)"/><path class="cls-18" d="M2062.46,1303.29c1.59-2.72,5.22-4.28,8.21-6.16,6.62-4.15,10.7-11.11,8.66-17.52s-11.2-11.32-19.33-9.37c-9.34,2.23-12.72,11.16-12.94,18.75s.71,15.21-4.32,22.1c-3.45,4.73-16.21,7.55-18.12,12.28-4.19,10.37-5.08,12.65,11.48,16.56,10,2.37,29.15-1.07,34.17-9.18C2076.94,1320,2056.75,1313,2062.46,1303.29Z" transform="translate(-361.37 -1254.8)"/><path class="cls-19" d="M1850.19,1810.65c12.06,0,12.08,14.55,0,14.55S1838.12,1810.65,1850.19,1810.65Z" transform="translate(-361.37 -1254.8)"/><path class="cls-19" d="M1934.15,1997c21.62,0,21.65,26.08,0,26.08S1912.51,1997,1934.15,1997Z" transform="translate(-361.37 -1254.8)"/><path class="cls-18" d="M2149.76,1846.72c-5.58,8.18-8.45,18.12-18,23.64-7.94,4.59-20.91,7.08-20.9,14.76-12.24-13.13-9.69-33.24,5.62-44.26,4.94-3.57,11.6-7.31,10.8-12.51-.73-4.74-6.76-9.68-8.41-14.49,23-4.92,56.15-1.92,58.85,21.43C2165.72,1833.45,2155.42,1838.43,2149.76,1846.72Z" transform="translate(-361.37 -1254.8)"/><text class="cls-20" transform="translate(0 1105.8)">P <tspan class="cls-21" x="283.86" y="0" xml:space="preserve"> A</tspan><tspan x="596.45" y="0" xml:space="preserve">  R </tspan><tspan class="cls-21" x="1057.81" y="0" xml:space="preserve"> A</tspan><tspan x="1370.4" y="0" xml:space="preserve">  D  I  S  E</tspan></text><text class="cls-22" transform="translate(668.3 1332.83)"><tspan class="cls-23">T</tspan><tspan x="114.12" y="0" xml:space="preserve">   R  </tspan><tspan class="cls-24" x="500.56" y="0" xml:space="preserve"> A</tspan><tspan x="691.59" y="0" xml:space="preserve">  </tspan><tspan class="cls-24" x="796.09" y="0" xml:space="preserve"> V</tspan><tspan x="971.02" y="0" xml:space="preserve">   E   </tspan><tspan class="cls-25" x="1408.25" y="0">L</tspan></text></g></g></svg>